<mxfile host="Electron" agent="Mozilla/5.0 (X11; Linux x86_64) AppleWebKit/537.36 (KHTML, like Gecko) draw.io/26.0.4 Chrome/128.0.6613.186 Electron/32.2.5 Safari/537.36" version="26.0.4">
  <diagram name="Page-1" id="epBr5RJ4D51e1GqINCC9">
    <mxGraphModel dx="928" dy="998" grid="1" gridSize="10" guides="1" tooltips="1" connect="1" arrows="1" fold="1" page="1" pageScale="1" pageWidth="850" pageHeight="1100" math="0" shadow="0">
      <root>
        <mxCell id="0" />
        <mxCell id="1" parent="0" />
        <mxCell id="X7iUIU7B1h5U10Tc-HBw-10" style="edgeStyle=orthogonalEdgeStyle;rounded=0;orthogonalLoop=1;jettySize=auto;html=1;" edge="1" parent="1" source="X7iUIU7B1h5U10Tc-HBw-1" target="X7iUIU7B1h5U10Tc-HBw-2">
          <mxGeometry relative="1" as="geometry" />
        </mxCell>
        <mxCell id="X7iUIU7B1h5U10Tc-HBw-1" value="Client" style="sketch=0;outlineConnect=0;fontColor=#232F3E;gradientColor=none;fillColor=#232F3D;strokeColor=none;dashed=0;verticalLabelPosition=bottom;verticalAlign=top;align=center;html=1;fontSize=12;fontStyle=0;aspect=fixed;pointerEvents=1;shape=mxgraph.aws4.user;" vertex="1" parent="1">
          <mxGeometry x="60" y="350" width="78" height="78" as="geometry" />
        </mxCell>
        <mxCell id="X7iUIU7B1h5U10Tc-HBw-11" style="edgeStyle=orthogonalEdgeStyle;rounded=0;orthogonalLoop=1;jettySize=auto;html=1;" edge="1" parent="1" source="X7iUIU7B1h5U10Tc-HBw-2" target="X7iUIU7B1h5U10Tc-HBw-3">
          <mxGeometry relative="1" as="geometry" />
        </mxCell>
        <mxCell id="X7iUIU7B1h5U10Tc-HBw-2" value="CloudFront" style="sketch=0;points=[[0,0,0],[0.25,0,0],[0.5,0,0],[0.75,0,0],[1,0,0],[0,1,0],[0.25,1,0],[0.5,1,0],[0.75,1,0],[1,1,0],[0,0.25,0],[0,0.5,0],[0,0.75,0],[1,0.25,0],[1,0.5,0],[1,0.75,0]];outlineConnect=0;fontColor=#232F3E;fillColor=#8C4FFF;strokeColor=#ffffff;dashed=0;verticalLabelPosition=bottom;verticalAlign=top;align=center;html=1;fontSize=12;fontStyle=0;aspect=fixed;shape=mxgraph.aws4.resourceIcon;resIcon=mxgraph.aws4.cloudfront;" vertex="1" parent="1">
          <mxGeometry x="230" y="350" width="78" height="78" as="geometry" />
        </mxCell>
        <mxCell id="X7iUIU7B1h5U10Tc-HBw-12" style="edgeStyle=orthogonalEdgeStyle;rounded=0;orthogonalLoop=1;jettySize=auto;html=1;" edge="1" parent="1" source="X7iUIU7B1h5U10Tc-HBw-3" target="X7iUIU7B1h5U10Tc-HBw-4">
          <mxGeometry relative="1" as="geometry" />
        </mxCell>
        <mxCell id="X7iUIU7B1h5U10Tc-HBw-3" value="API Gateway" style="sketch=0;points=[[0,0,0],[0.25,0,0],[0.5,0,0],[0.75,0,0],[1,0,0],[0,1,0],[0.25,1,0],[0.5,1,0],[0.75,1,0],[1,1,0],[0,0.25,0],[0,0.5,0],[0,0.75,0],[1,0.25,0],[1,0.5,0],[1,0.75,0]];outlineConnect=0;fontColor=#232F3E;fillColor=#E7157B;strokeColor=#ffffff;dashed=0;verticalLabelPosition=bottom;verticalAlign=top;align=center;html=1;fontSize=12;fontStyle=0;aspect=fixed;shape=mxgraph.aws4.resourceIcon;resIcon=mxgraph.aws4.api_gateway;" vertex="1" parent="1">
          <mxGeometry x="400" y="350" width="78" height="78" as="geometry" />
        </mxCell>
        <mxCell id="X7iUIU7B1h5U10Tc-HBw-13" style="edgeStyle=orthogonalEdgeStyle;rounded=0;orthogonalLoop=1;jettySize=auto;html=1;" edge="1" parent="1" source="X7iUIU7B1h5U10Tc-HBw-4" target="X7iUIU7B1h5U10Tc-HBw-7">
          <mxGeometry relative="1" as="geometry" />
        </mxCell>
        <mxCell id="X7iUIU7B1h5U10Tc-HBw-15" style="edgeStyle=orthogonalEdgeStyle;rounded=0;orthogonalLoop=1;jettySize=auto;html=1;" edge="1" parent="1" source="X7iUIU7B1h5U10Tc-HBw-4" target="X7iUIU7B1h5U10Tc-HBw-6">
          <mxGeometry relative="1" as="geometry">
            <Array as="points">
              <mxPoint x="700" y="410" />
              <mxPoint x="700" y="529" />
            </Array>
          </mxGeometry>
        </mxCell>
        <mxCell id="X7iUIU7B1h5U10Tc-HBw-4" value="App logic&lt;div&gt;EC2 / Lambda&lt;/div&gt;" style="sketch=0;outlineConnect=0;fontColor=#232F3E;gradientColor=none;fillColor=#ED7100;strokeColor=none;dashed=0;verticalLabelPosition=bottom;verticalAlign=top;align=center;html=1;fontSize=12;fontStyle=0;aspect=fixed;pointerEvents=1;shape=mxgraph.aws4.instance2;" vertex="1" parent="1">
          <mxGeometry x="570" y="350" width="77" height="77" as="geometry" />
        </mxCell>
        <mxCell id="X7iUIU7B1h5U10Tc-HBw-5" value="EFS / S3" style="sketch=0;points=[[0,0,0],[0.25,0,0],[0.5,0,0],[0.75,0,0],[1,0,0],[0,1,0],[0.25,1,0],[0.5,1,0],[0.75,1,0],[1,1,0],[0,0.25,0],[0,0.5,0],[0,0.75,0],[1,0.25,0],[1,0.5,0],[1,0.75,0]];outlineConnect=0;fontColor=#232F3E;fillColor=#7AA116;strokeColor=#ffffff;dashed=0;verticalLabelPosition=bottom;verticalAlign=top;align=center;html=1;fontSize=12;fontStyle=0;aspect=fixed;shape=mxgraph.aws4.resourceIcon;resIcon=mxgraph.aws4.elastic_file_system;" vertex="1" parent="1">
          <mxGeometry x="740" y="630" width="78" height="78" as="geometry" />
        </mxCell>
        <mxCell id="X7iUIU7B1h5U10Tc-HBw-6" value="Database" style="sketch=0;outlineConnect=0;fontColor=#232F3E;gradientColor=none;fillColor=#C925D1;strokeColor=none;dashed=0;verticalLabelPosition=bottom;verticalAlign=top;align=center;html=1;fontSize=12;fontStyle=0;aspect=fixed;pointerEvents=1;shape=mxgraph.aws4.rds_instance;" vertex="1" parent="1">
          <mxGeometry x="740" y="490" width="78" height="78" as="geometry" />
        </mxCell>
        <mxCell id="X7iUIU7B1h5U10Tc-HBw-7" value="Redis&lt;div&gt;Memcached&lt;/div&gt;&lt;div&gt;DAX&lt;/div&gt;" style="sketch=0;outlineConnect=0;fontColor=#232F3E;gradientColor=none;fillColor=#C925D1;strokeColor=none;dashed=0;verticalLabelPosition=bottom;verticalAlign=top;align=center;html=1;fontSize=12;fontStyle=0;aspect=fixed;pointerEvents=1;shape=mxgraph.aws4.elasticache_for_redis;" vertex="1" parent="1">
          <mxGeometry x="740" y="354" width="78" height="69" as="geometry" />
        </mxCell>
        <mxCell id="X7iUIU7B1h5U10Tc-HBw-9" style="edgeStyle=orthogonalEdgeStyle;rounded=0;orthogonalLoop=1;jettySize=auto;html=1;" edge="1" parent="1" source="X7iUIU7B1h5U10Tc-HBw-8" target="X7iUIU7B1h5U10Tc-HBw-5">
          <mxGeometry relative="1" as="geometry" />
        </mxCell>
        <mxCell id="X7iUIU7B1h5U10Tc-HBw-8" value="CloudFront (edge)" style="sketch=0;points=[[0,0,0],[0.25,0,0],[0.5,0,0],[0.75,0,0],[1,0,0],[0,1,0],[0.25,1,0],[0.5,1,0],[0.75,1,0],[1,1,0],[0,0.25,0],[0,0.5,0],[0,0.75,0],[1,0.25,0],[1,0.5,0],[1,0.75,0]];outlineConnect=0;fontColor=#232F3E;fillColor=#8C4FFF;strokeColor=#ffffff;dashed=0;verticalLabelPosition=bottom;verticalAlign=top;align=center;html=1;fontSize=12;fontStyle=0;aspect=fixed;shape=mxgraph.aws4.resourceIcon;resIcon=mxgraph.aws4.cloudfront;" vertex="1" parent="1">
          <mxGeometry x="230" y="630" width="78" height="78" as="geometry" />
        </mxCell>
        <mxCell id="X7iUIU7B1h5U10Tc-HBw-16" style="edgeStyle=orthogonalEdgeStyle;rounded=0;orthogonalLoop=1;jettySize=auto;html=1;entryX=0;entryY=0.5;entryDx=0;entryDy=0;entryPerimeter=0;" edge="1" parent="1" source="X7iUIU7B1h5U10Tc-HBw-1" target="X7iUIU7B1h5U10Tc-HBw-8">
          <mxGeometry relative="1" as="geometry">
            <Array as="points">
              <mxPoint x="200" y="410" />
              <mxPoint x="200" y="669" />
            </Array>
          </mxGeometry>
        </mxCell>
        <mxCell id="X7iUIU7B1h5U10Tc-HBw-17" value="" style="shape=flexArrow;endArrow=classic;html=1;rounded=0;width=18.285714285714285;endSize=13.097142857142858;fillColor=#d5e8d4;strokeColor=#82b366;" edge="1" parent="1">
          <mxGeometry width="50" height="50" relative="1" as="geometry">
            <mxPoint x="60" y="780" as="sourcePoint" />
            <mxPoint x="820" y="780" as="targetPoint" />
          </mxGeometry>
        </mxCell>
        <mxCell id="X7iUIU7B1h5U10Tc-HBw-19" value="&lt;div&gt;Caching, TTL, Network, Computation, Cost, Latency&lt;/div&gt;" style="edgeLabel;html=1;align=center;verticalAlign=middle;resizable=0;points=[];labelBackgroundColor=none;" vertex="1" connectable="0" parent="X7iUIU7B1h5U10Tc-HBw-17">
          <mxGeometry x="-0.0316" y="1" relative="1" as="geometry">
            <mxPoint as="offset" />
          </mxGeometry>
        </mxCell>
      </root>
    </mxGraphModel>
  </diagram>
</mxfile>
